# Blender 4.0.1
# www.blender.org
mtllib rat.mtl
o Cube
v -0.050000 -0.050000 0.080000
v -0.050000 0.050000 0.080000
v -0.050000 -0.050000 -0.080000
v -0.050000 0.050000 -0.080000
v 0.050000 -0.050000 0.080000
v 0.050000 0.050000 0.080000
v 0.050000 -0.050000 -0.080000
v 0.050000 0.050000 -0.080000
v -0.050000 -0.050000 0.100000
v -0.050000 0.050000 0.100000
v 0.050000 -0.050000 0.100000
v 0.050000 0.050000 0.100000
v -0.050000 -0.050000 -0.100000
v -0.050000 0.050000 -0.100000
v 0.050000 -0.050000 -0.100000
v 0.050000 0.050000 -0.100000
v -0.030000 -0.050000 -0.080000
v -0.030000 0.050000 -0.080000
v -0.030000 -0.050000 0.080000
v -0.030000 0.050000 0.080000
v -0.010000 -0.020000 0.100000
v -0.010000 0.000000 0.100000
v -0.030000 -0.050000 -0.100000
v -0.030000 0.050000 -0.100000
v 0.030000 0.050000 -0.080000
v 0.030000 -0.050000 0.080000
v 0.010000 -0.020000 0.100000
v 0.030000 0.050000 -0.100000
v 0.030000 -0.050000 -0.080000
v 0.030000 0.050000 0.080000
v 0.010000 0.000000 0.100000
v 0.030000 -0.050000 -0.100000
v -0.030000 -0.100000 -0.080000
v -0.050000 -0.100000 -0.080000
v 0.030000 -0.100000 0.080000
v 0.050000 -0.100000 0.080000
v 0.030000 -0.100000 0.100000
v 0.050000 -0.100000 0.100000
v -0.050000 -0.100000 0.080000
v -0.050000 -0.100000 0.100000
v -0.030000 -0.100000 -0.100000
v -0.050000 -0.100000 -0.100000
v 0.050000 -0.100000 -0.080000
v 0.050000 -0.100000 -0.100000
v -0.030000 -0.100000 0.080000
v -0.030000 -0.100000 0.100000
v 0.030000 -0.100000 -0.080000
v 0.030000 -0.100000 -0.100000
v 0.030000 0.050000 0.100000
v -0.030000 0.050000 0.100000
v -0.030000 -0.050000 0.100000
v 0.030000 -0.050000 0.100000
v -0.010000 -0.020000 0.200000
v -0.010000 0.000000 0.200000
v 0.010000 -0.020000 0.200000
v 0.010000 0.000000 0.200000
v 0.030000 -0.050000 -0.110000
v -0.030000 -0.050000 -0.110000
v -0.030000 0.050000 -0.110000
v 0.030000 0.050000 -0.110000
v 0.010000 -0.030000 -0.200000
v -0.010000 -0.030000 -0.200000
v -0.010000 0.000000 -0.200000
v 0.010000 0.000000 -0.200000
v 0.050000 0.050000 -0.110000
v 0.050000 -0.050000 -0.110000
v 0.030000 0.000000 -0.200000
v 0.030000 -0.030000 -0.200000
v -0.050000 0.050000 -0.110000
v -0.050000 -0.050000 -0.110000
v -0.030000 0.000000 -0.200000
v -0.030000 -0.030000 -0.200000
v 0.030000 0.050000 -0.120000
v -0.030000 0.050000 -0.120000
v -0.030000 -0.050000 -0.120000
v 0.030000 -0.050000 -0.120000
v 0.050000 0.050000 -0.120000
v 0.050000 -0.050000 -0.120000
v -0.050000 0.050000 -0.120000
v -0.050000 -0.050000 -0.120000
v -0.030000 0.090000 -0.120000
v -0.030000 0.090000 -0.110000
v 0.050000 0.090000 -0.110000
v 0.030000 0.090000 -0.110000
v -0.050000 0.090000 -0.120000
v -0.050000 0.090000 -0.110000
v 0.030000 0.090000 -0.120000
v 0.050000 0.090000 -0.120000
vn -1.0000 -0.0000 -0.0000
vn -0.0000 1.0000 -0.0000
vn 1.0000 -0.0000 -0.0000
vn -0.0000 -1.0000 -0.0000
vn -0.0000 -0.0000 1.0000
vn -0.0000 -0.0000 -1.0000
vn -0.0000 0.8480 -0.5300
vn -0.0000 -0.9701 -0.2425
vn -0.9701 -0.0000 -0.2425
vn 0.9701 -0.0000 -0.2425
vt 0.375000 0.000000
vt 0.625000 0.000000
vt 0.625000 0.250000
vt 0.375000 0.250000
vt 0.687500 0.500000
vt 0.625000 0.500000
vt 0.375000 0.500000
vt 0.625000 0.750000
vt 0.375000 0.750000
vt 0.312500 0.500000
vt 0.312500 0.750000
vt 0.750000 0.500000
vt 0.875000 0.500000
vt 0.875000 0.750000
vt 0.750000 0.750000
vt 0.375000 0.875000
vt 0.625000 0.875000
vt 0.625000 1.000000
vt 0.375000 1.000000
vt 0.375000 0.812500
vt 0.375000 0.437500
vt 0.625000 0.437500
vt 0.250000 0.500000
vt 0.625000 0.375000
vt 0.375000 0.375000
vt 0.687500 0.750000
vt 0.425000 0.833333
vt 0.575000 0.833333
vt 0.125000 0.500000
vt 0.250000 0.750000
vt 0.125000 0.750000
vt 0.625000 0.812500
vt 0.575000 0.854167
vt 0.425000 0.854167
s 0
f 1/1/1 2/2/1 4/3/1 3/4/1
f 25/5/2 8/6/2 16/6/2 28/5/2
f 7/7/3 8/6/3 6/8/3 5/9/3
f 5/9/3 6/8/3 12/8/3 11/9/3
f 29/10/4 7/7/4 5/9/4 26/11/4
f 18/12/2 4/13/2 2/14/2 20/15/2
f 51/16/5 50/17/5 10/18/5 9/19/5
f 2/2/1 1/1/1 9/1/1 10/2/1
f 11/9/5 52/20/5 37/20/5 38/9/5
f 20/15/2 2/14/2 10/14/2 50/15/2
f 32/21/6 28/22/6 16/6/6 15/7/6
f 3/4/1 4/3/1 14/3/1 13/4/1
f 8/6/3 7/7/3 15/7/3 16/6/3
f 32/21/6 15/7/6 44/7/6 48/21/6
f 29/10/4 17/23/4 23/23/4 32/10/4
f 13/4/6 14/3/6 24/24/6 23/25/6
f 30/26/2 20/15/2 50/15/2 49/26/2
f 23/23/3 17/23/3 33/23/3 41/23/3
f 27/27/3 31/28/3 56/28/3 55/27/3
f 25/5/2 18/12/2 20/15/2 30/26/2
f 3/29/4 17/23/4 19/30/4 1/31/4
f 4/13/2 18/12/2 24/12/2 14/13/2
f 8/6/2 25/5/2 30/26/2 6/8/2
f 11/9/5 12/8/5 49/32/5 52/20/5
f 6/8/2 30/26/2 49/26/2 12/8/2
f 13/4/6 23/25/6 41/25/6 42/4/6
f 23/25/1 24/24/1 59/24/1 58/25/1
f 19/30/4 26/11/4 52/11/4 51/30/4
f 17/23/4 29/10/4 26/11/4 19/30/4
f 18/12/2 25/5/2 28/5/2 24/12/2
f 35/11/4 36/9/4 38/9/4 37/11/4
f 33/23/4 34/29/4 42/29/4 41/23/4
f 39/31/4 45/30/4 46/30/4 40/31/4
f 43/7/4 47/10/4 48/10/4 44/7/4
f 1/31/6 19/30/6 45/30/6 39/31/6
f 19/30/3 51/30/3 46/30/3 45/30/3
f 5/9/3 11/9/3 38/9/3 36/9/3
f 51/16/5 9/19/5 40/19/5 46/16/5
f 26/11/6 5/9/6 36/9/6 35/11/6
f 29/10/1 32/10/1 48/10/1 47/10/1
f 9/1/1 1/1/1 39/1/1 40/1/1
f 7/7/5 29/10/5 47/10/5 43/7/5
f 3/4/1 13/4/1 42/4/1 34/4/1
f 17/23/5 3/29/5 34/29/5 33/23/5
f 15/7/3 7/7/3 43/7/3 44/7/3
f 52/11/1 26/11/1 35/11/1 37/11/1
f 22/33/5 31/28/5 49/32/5 50/17/5
f 21/34/5 22/33/5 50/17/5 51/16/5
f 27/27/5 21/34/5 51/16/5 52/20/5
f 31/28/5 27/27/5 52/20/5 49/32/5
f 55/27/5 56/28/5 54/33/5 53/34/5
f 22/33/1 21/34/1 53/34/1 54/33/1
f 21/34/4 27/27/4 55/27/4 53/34/4
f 31/28/2 22/33/2 54/33/2 56/28/2
f 74/12/7 73/5/7 64/5/7 63/12/7
f 24/12/2 28/5/2 60/5/2 59/12/2
f 32/10/4 23/23/4 58/23/4 57/10/4
f 28/22/3 32/21/3 57/21/3 60/22/3
f 62/25/6 63/24/6 64/22/6 61/21/6
f 76/10/8 75/23/8 62/23/8 61/10/8
f 76/10/8 61/10/8 68/10/8 78/10/8
f 74/12/7 63/12/7 71/12/7 79/12/7
f 72/23/9 80/23/9 79/24/9 71/12/9
f 61/21/6 64/22/6 67/22/6 68/21/6
f 60/22/5 57/21/5 66/21/5 65/22/5
f 65/22/3 77/22/3 88/22/3 83/22/3
f 63/24/6 62/25/6 72/25/6 71/24/6
f 75/23/4 58/23/4 70/23/4 80/23/4
f 58/25/5 59/24/5 69/24/5 70/25/5
f 62/23/8 75/23/8 80/23/8 72/23/8
f 70/25/1 69/24/1 79/24/1 80/25/1
f 64/5/7 73/5/7 77/5/7 67/5/7
f 65/22/3 66/21/3 78/21/3 77/22/3
f 69/24/5 59/24/5 82/24/5 86/24/5
f 57/10/4 76/10/4 78/10/4 66/10/4
f 57/10/4 58/23/4 75/23/4 76/10/4
f 59/12/2 60/5/2 73/5/2 74/12/2
f 87/5/2 84/5/2 83/5/2 88/5/2
f 82/12/2 81/12/2 85/12/2 86/12/2
f 60/22/5 65/22/5 83/22/5 84/22/5
f 73/5/1 60/5/1 84/5/1 87/5/1
f 79/24/1 69/24/1 86/24/1 85/24/1
f 59/12/3 74/12/3 81/12/3 82/12/3
f 74/12/6 79/12/6 85/12/6 81/12/6
f 77/5/6 73/5/6 87/5/6 88/5/6
f 67/5/10 77/5/10 78/21/10 68/10/10
