# Blender 4.0.1
# www.blender.org
mtllib flying_robot.mtl
o Cube.003
v -0.250000 0.800000 -0.150000
v -0.200000 1.100000 -0.150000
v -0.000000 0.800000 -0.150000
v -0.000000 1.100000 -0.150000
v -0.250000 0.800000 0.150000
v -0.200000 1.100000 0.150000
v 0.000000 0.800000 0.150000
v 0.000000 1.100000 0.150000
v -0.100000 0.150000 -0.100000
v -0.200000 0.750000 -0.200000
v -0.100000 0.150000 0.100000
v -0.200000 0.750000 0.200000
v -0.000000 0.150000 -0.100000
v -0.000000 0.750000 -0.200000
v 0.000000 0.150000 0.100000
v 0.000000 0.750000 0.200000
v -0.020000 0.700000 -0.020000
v -0.020000 0.900000 -0.020000
v -0.020000 0.700000 0.020000
v -0.020000 0.900000 0.020000
v -0.000000 0.700000 -0.020000
v -0.000000 0.900000 -0.020000
v 0.000000 0.700000 0.020000
v 0.000000 0.900000 0.020000
v 0.250000 0.800000 -0.150000
v 0.200000 1.100000 -0.150000
v 0.250000 0.800000 0.150000
v 0.200000 1.100000 0.150000
v 0.100000 0.150000 -0.100000
v 0.200000 0.750000 -0.200000
v 0.100000 0.150000 0.100000
v 0.200000 0.750000 0.200000
v 0.020000 0.700000 -0.020000
v 0.020000 0.900000 -0.020000
v 0.020000 0.700000 0.020000
v 0.020000 0.900000 0.020000
vn -0.0000 -0.0000 -1.0000
vn -0.0000 -0.0000 1.0000
vn -0.9864 0.1644 -0.0000
vn -0.0000 -1.0000 -0.0000
vn -0.0000 1.0000 -0.0000
vn -0.0000 -0.1644 0.9864
vn -0.9864 -0.1644 -0.0000
vn -0.0000 -0.1644 -0.9864
vn -1.0000 -0.0000 -0.0000
vn 0.9864 0.1644 -0.0000
vn 0.9864 -0.1644 -0.0000
vn 1.0000 -0.0000 -0.0000
vt 0.375000 0.000000
vt 0.625000 0.000000
vt 0.625000 0.250000
vt 0.375000 0.250000
vt 0.375000 0.500000
vt 0.625000 0.500000
vt 0.625000 0.750000
vt 0.375000 0.750000
vt 0.625000 1.000000
vt 0.375000 1.000000
vt 0.125000 0.500000
vt 0.125000 0.750000
vt 0.875000 0.500000
vt 0.875000 0.750000
vt 0.375000 0.625000
vt 0.625000 0.625000
vt 0.125000 0.625000
vt 0.875000 0.625000
vt 0.625000 0.125000
vt 0.375000 0.125000
s 0
f 1/1/1 2/2/1 4/3/1 3/4/1
f 7/5/2 8/6/2 6/7/2 5/8/2
f 5/8/3 6/7/3 2/9/3 1/10/3
f 3/11/4 7/5/4 5/8/4 1/12/4
f 8/6/5 4/13/5 2/14/5 6/7/5
f 15/15/6 16/16/6 12/7/6 11/8/6
f 11/8/7 12/7/7 10/9/7 9/10/7
f 13/17/4 15/15/4 11/8/4 9/12/4
f 16/16/5 14/18/5 10/14/5 12/7/5
f 9/1/8 10/2/8 14/19/8 13/20/8
f 23/15/2 24/16/2 20/7/2 19/8/2
f 19/8/9 20/7/9 18/9/9 17/10/9
f 21/17/4 23/15/4 19/8/4 17/12/4
f 24/16/5 22/18/5 18/14/5 20/7/5
f 17/1/1 18/2/1 22/19/1 21/20/1
f 25/1/1 3/4/1 4/3/1 26/2/1
f 7/5/2 27/8/2 28/7/2 8/6/2
f 27/8/10 25/10/10 26/9/10 28/7/10
f 3/11/4 25/12/4 27/8/4 7/5/4
f 8/6/5 28/7/5 26/14/5 4/13/5
f 15/15/6 31/8/6 32/7/6 16/16/6
f 31/8/11 29/10/11 30/9/11 32/7/11
f 13/17/4 29/12/4 31/8/4 15/15/4
f 16/16/5 32/7/5 30/14/5 14/18/5
f 29/1/8 13/20/8 14/19/8 30/2/8
f 23/15/2 35/8/2 36/7/2 24/16/2
f 35/8/12 33/10/12 34/9/12 36/7/12
f 21/17/4 33/12/4 35/8/4 23/15/4
f 24/16/5 36/7/5 34/14/5 22/18/5
f 33/1/1 21/20/1 22/19/1 34/2/1
o Cube.004
v -0.141874 0.691548 -0.020000
v -0.327826 0.292772 -0.020000
v -0.178126 0.708452 -0.020000
v -0.364078 0.309677 -0.020000
v -0.141874 0.691548 0.020000
v -0.327826 0.292772 0.020000
v -0.178126 0.708452 0.020000
v -0.364078 0.309677 0.020000
vn -0.0000 -0.0000 -1.0000
vn -0.9063 0.4226 -0.0000
vn -0.0000 -0.0000 1.0000
vn 0.9063 -0.4226 -0.0000
vn 0.4226 0.9063 -0.0000
vn -0.4226 -0.9063 -0.0000
vt 0.375000 0.000000
vt 0.625000 0.000000
vt 0.625000 0.250000
vt 0.375000 0.250000
vt 0.625000 0.500000
vt 0.375000 0.500000
vt 0.625000 0.750000
vt 0.375000 0.750000
vt 0.625000 1.000000
vt 0.375000 1.000000
vt 0.125000 0.500000
vt 0.125000 0.750000
vt 0.875000 0.500000
vt 0.875000 0.750000
s 0
f 37/21/13 38/22/13 40/23/13 39/24/13
f 39/24/14 40/23/14 44/25/14 43/26/14
f 43/26/15 44/25/15 42/27/15 41/28/15
f 41/28/16 42/27/16 38/29/16 37/30/16
f 39/31/17 43/26/17 41/28/17 37/32/17
f 44/25/18 40/33/18 38/34/18 42/27/18
o Cube.005
v 0.168126 0.708452 -0.020000
v 0.354078 0.309677 -0.020000
v 0.131874 0.691548 -0.020000
v 0.317826 0.292772 -0.020000
v 0.168126 0.708452 0.020000
v 0.354078 0.309677 0.020000
v 0.131874 0.691548 0.020000
v 0.317826 0.292772 0.020000
vn -0.0000 -0.0000 -1.0000
vn -0.9063 -0.4226 -0.0000
vn -0.0000 -0.0000 1.0000
vn 0.9063 0.4226 -0.0000
vn -0.4226 0.9063 -0.0000
vn 0.4226 -0.9063 -0.0000
vt 0.375000 0.000000
vt 0.625000 0.000000
vt 0.625000 0.250000
vt 0.375000 0.250000
vt 0.625000 0.500000
vt 0.375000 0.500000
vt 0.625000 0.750000
vt 0.375000 0.750000
vt 0.625000 1.000000
vt 0.375000 1.000000
vt 0.125000 0.500000
vt 0.125000 0.750000
vt 0.875000 0.500000
vt 0.875000 0.750000
s 0
f 45/35/19 46/36/19 48/37/19 47/38/19
f 47/38/20 48/37/20 52/39/20 51/40/20
f 51/40/21 52/39/21 50/41/21 49/42/21
f 49/42/22 50/41/22 46/43/22 45/44/22
f 47/45/23 51/40/23 49/42/23 45/46/23
f 52/39/24 48/47/24 46/48/24 50/41/24
