# Blender 4.0.1
# www.blender.org
mtllib car_sedan.mtl
o Cube.001
v -1.414629 -0.002335 0.865260
v -1.509287 0.947660 0.901696
v -1.414629 -0.002335 -0.865260
v -1.509287 0.947660 -0.901696
v 1.814629 -0.002335 0.865260
v 1.814629 -0.002335 -0.865260
v -1.559420 0.411707 1.004822
v -1.559420 0.411707 -0.991556
v 1.957075 0.371764 -0.991556
v 1.957075 0.371764 1.004822
v -1.537683 0.578795 0.981795
v -1.537683 0.578795 -0.995178
v 1.954453 0.567579 -0.995178
v 1.954453 0.567579 0.981795
v -0.872803 1.397665 0.704044
v -0.872803 1.397665 -0.704044
v 0.664043 1.273402 -0.704044
v 0.664043 1.273402 0.704044
v -1.898134 -0.002335 -0.865260
v -1.898134 -0.002335 0.865260
v -2.021188 0.578795 0.955560
v -1.992792 1.079702 0.901696
v -1.992792 1.079702 -0.901696
v -2.042925 0.411707 -0.991556
v -2.042925 0.411707 1.004822
v -2.021188 0.578795 -0.968592
v -1.736826 -0.002335 0.865260
v -1.881618 0.411707 1.004822
v -1.831485 0.947660 0.901696
v -1.859881 0.578795 0.964312
v -1.859881 0.578795 -0.977462
v -1.831485 0.947660 -0.901696
v -1.881618 0.411707 -0.991556
v -1.736826 -0.002335 -0.865260
v -1.523485 0.763228 0.941746
v -1.523485 0.763228 -0.948437
v 1.132568 0.665865 -0.948437
v 1.132568 0.665865 0.941746
v -1.976220 0.649521 0.928628
v -1.976220 0.649521 -0.935144
v -1.845683 0.763228 0.933004
v -1.845683 0.763228 -0.939579
vn -0.0372 0.1947 -0.9802
vn -0.0654 0.1691 -0.9834
vn -0.0792 0.1872 -0.9791
vn -0.1220 0.2546 -0.9593
vn 0.7919 0.6107 -0.0000
vn 0.0244 0.3491 0.9368
vn 0.0095 0.2876 0.9577
vn -0.0058 0.2549 0.9669
vn 0.0095 0.3006 0.9537
vn -0.0000 -1.0000 -0.0000
vn -0.0020 -0.3338 0.9426
vn -0.0008 -0.3251 0.9457
vn -0.0012 -0.3281 0.9446
vn 0.9345 -0.3558 -0.0000
vn 0.9882 -0.1529 -0.0000
vn 0.9873 -0.1590 -0.0000
vn -0.0011 -0.2999 -0.9540
vn -0.0079 -0.1450 -0.9894
vn -0.0009 -0.1482 -0.9890
vn -0.0018 -0.3052 -0.9523
vn -0.0350 0.1634 0.9859
vn -0.0109 0.1361 0.9906
vn -0.0090 0.0943 0.9955
vn -0.1085 0.2130 0.9710
vn 0.0009 0.1258 0.9920
vn 0.0012 0.1377 0.9905
vn -0.0151 0.1967 0.9804
vn -0.0139 0.1606 0.9869
vn 0.9999 0.0134 -0.0000
vn -0.0156 0.1417 -0.9898
vn -0.0001 -0.0200 -0.9998
vn -0.0000 -0.3194 0.9476
vn 0.0806 0.9967 -0.0000
vn -0.5773 0.8165 -0.0000
vn -0.9993 -0.0385 -0.0000
vn -0.9439 -0.3301 -0.0000
vn -0.9949 -0.1012 -0.0000
vn -0.9959 -0.0908 -0.0000
vn -0.9537 0.3007 -0.0000
vn -0.9528 0.3035 -0.0000
vn -0.0274 0.0776 -0.9966
vn -0.0273 0.1137 -0.9931
vn 0.6334 0.7738 -0.0000
vn -0.0264 0.2293 0.9730
vn -0.0596 0.2239 0.9728
vn -0.0706 0.2586 0.9634
vn -0.0262 0.2625 0.9646
vn -0.0000 -0.2918 -0.9565
vn -0.0000 1.0000 -0.0000
vn -0.0058 0.2851 -0.9585
vn 0.0091 0.3066 -0.9518
vn -0.0103 0.1627 -0.9866
vn -0.8439 0.5365 -0.0000
vn 0.1187 0.9929 -0.0000
vn 0.0100 0.3358 -0.9419
vn 0.0058 0.3288 -0.9444
vn -0.0079 0.1153 -0.9933
vn 0.0237 0.3588 -0.9331
vt 0.593750 0.250000
vt 0.562500 0.250000
vt 0.593750 0.250000
vt 0.625000 0.500000
vt 0.625000 0.750000
vt 0.593750 0.750000
vt 0.593750 0.500000
vt 0.625000 1.000000
vt 0.593750 1.000000
vt 0.125000 0.500000
vt 0.375000 0.500000
vt 0.375000 0.750000
vt 0.125000 0.750000
vt 0.500000 0.750000
vt 0.500000 1.000000
vt 0.375000 1.000000
vt 0.500000 0.500000
vt 0.375000 0.250000
vt 0.500000 0.250000
vt 0.625000 1.000000
vt 0.562500 0.750000
vt 0.562500 1.000000
vt 0.562500 0.500000
vt 0.625000 0.250000
vt 0.625000 0.000000
vt 0.593750 0.000000
vt 0.375000 0.000000
vt 0.500000 0.000000
vt 0.562500 0.000000
vt 0.500000 0.250000
vt 0.625000 0.250000
s 1
f 42/1/1 31/2/2 26/2/3 40/3/4
f 17/4/5 18/5/5 38/6/5 37/7/5
f 18/5/6 15/8/6 2/8/7 35/9/8 38/6/9
f 3/10/10 6/11/10 5/12/10 1/13/10
f 5/12/11 10/14/11 7/15/12 1/16/13
f 6/11/14 9/17/15 10/14/16 5/12/14
f 3/18/17 8/19/18 9/17/19 6/11/20
f 41/9/21 29/20/22 22/8/23 39/9/24
f 10/14/25 14/21/26 11/22/27 7/15/28
f 9/17/15 13/23/29 14/21/29 10/14/16
f 8/19/18 12/2/30 13/23/31 9/17/19
f 27/16/32 28/15/32 25/15/32 20/16/32
f 15/8/33 18/5/33 17/4/33 16/24/33
f 4/24/34 2/25/34 15/25/34 16/24/34
f 39/26/35 22/25/35 23/24/35 40/3/35
f 20/27/36 25/28/37 24/19/38 19/18/36
f 25/28/37 21/29/39 26/2/40 24/19/38
f 31/2/2 33/30/41 24/19/42 26/2/3
f 29/25/43 32/31/43 23/24/43 22/25/43
f 34/10/10 27/13/10 20/13/10 19/10/10
f 28/15/44 30/22/45 21/22/46 25/15/47
f 33/30/48 34/18/48 19/18/48 24/19/48
f 8/19/18 3/18/17 34/18/48 33/30/48
f 7/15/28 11/22/27 30/22/45 28/15/44
f 3/10/10 1/13/10 27/13/10 34/10/10
f 2/25/49 4/24/49 32/31/49 29/25/49
f 12/2/30 8/19/18 33/30/41 31/2/2
f 1/16/13 7/15/12 28/15/32 27/16/32
f 35/9/8 2/8/7 29/20/22 41/9/21
f 36/3/50 12/2/30 31/2/2 42/1/1
f 4/24/51 36/3/50 42/1/1 32/31/52
f 11/22/27 35/9/8 41/9/21 30/22/45
f 21/29/39 39/26/53 40/3/53 26/2/40
f 30/22/45 41/9/21 39/9/24 21/22/46
f 14/21/26 38/6/9 35/9/8 11/22/27
f 13/23/54 37/7/54 38/6/54 14/21/54
f 12/2/30 36/3/50 37/7/55 13/23/56
f 32/31/52 42/1/1 40/3/4 23/24/57
f 4/24/51 16/24/58 17/4/58 37/7/55 36/3/50
