# Blender 4.0.1
# www.blender.org
mtllib car_combi.mtl
o Cube.002
v -1.764483 0.000000 0.848868
v -2.000000 0.938085 0.946624
v -1.764483 0.000000 -0.848868
v -2.000000 0.938085 -0.946624
v 1.680685 0.000000 0.848868
v 1.841914 0.794531 0.946624
v 1.680685 0.000000 -0.848868
v 1.841914 0.794531 -0.946624
v 0.925713 0.000000 -0.848868
v 1.000000 0.938085 -0.946624
v 0.925713 0.000000 0.848868
v 1.000000 0.938085 0.946624
v -2.000000 1.668046 0.677073
v -2.000000 1.668046 -0.677073
v 0.533952 1.668046 0.677073
v 0.533952 1.668046 -0.677073
v -2.000000 0.434212 0.983614
v -2.000000 0.746907 1.000000
v -2.000000 0.746907 -1.000000
v -2.000000 0.434212 -0.983614
v 2.000000 0.632609 -1.000000
v 2.000000 0.367765 -0.983614
v 2.000000 0.632609 1.000000
v 2.000000 0.367765 0.983614
v 1.000000 0.746907 1.000000
v 1.000000 0.434212 0.983614
v 1.000000 0.746907 -1.000000
v 1.000000 0.434212 -0.983614
vn -1.0000 -0.0000 -0.0000
vn 0.0105 0.1250 -0.9921
vn 0.0151 0.3023 -0.9531
vn 0.0429 0.3067 -0.9508
vn 0.0093 0.0525 -0.9986
vn 0.7155 0.6986 -0.0000
vn 0.0105 0.1250 0.9921
vn 0.0151 0.3023 0.9531
vn -0.0000 0.3079 0.9514
vn -0.0000 0.1097 0.9940
vn -0.0000 -1.0000 -0.0000
vn 0.8429 0.5381 -0.0000
vn 0.1681 0.9858 -0.0000
vn 0.0093 0.0525 0.9986
vn 0.0429 0.3067 0.9508
vn -0.0000 0.1097 -0.9940
vn -0.0000 0.3079 -0.9514
vn -0.0000 1.0000 -0.0000
vn -0.0000 0.3464 -0.9381
vn -0.0000 0.3464 0.9381
vn -0.0000 -0.2964 -0.9551
vn -0.0000 -0.1536 -0.9881
vn -0.0045 -0.1789 -0.9839
vn -0.0053 -0.3040 -0.9527
vn -0.0119 -0.3133 0.9496
vn -0.0078 -0.1572 0.9875
vn -0.0045 -0.1789 0.9839
vn -0.0053 -0.3040 0.9527
vn -0.0000 -0.1536 0.9881
vn -0.0000 -0.2964 0.9551
vn 0.7551 -0.6556 -0.0000
vn 1.0000 -0.0000 -0.0000
vn -0.0078 -0.1572 -0.9875
vn -0.0119 -0.3133 -0.9496
vn -0.8790 -0.4768 -0.0000
vn -0.9757 -0.2191 -0.0000
vt 0.574051 0.000000
vt 0.625000 0.000000
vt 0.625000 0.250000
vt 0.574051 0.250000
vt 0.574051 0.375000
vt 0.625000 0.375000
vt 0.625000 0.500000
vt 0.574051 0.500000
vt 0.625000 0.750000
vt 0.574051 0.750000
vt 0.574051 0.875000
vt 0.625000 0.875000
vt 0.625000 1.000000
vt 0.574051 1.000000
vt 0.250000 0.500000
vt 0.375000 0.500000
vt 0.375000 0.750000
vt 0.250000 0.750000
vt 0.750000 0.750000
vt 0.750000 0.500000
vt 0.125000 0.500000
vt 0.125000 0.750000
vt 0.875000 0.500000
vt 0.875000 0.750000
vt 0.375000 0.250000
vt 0.490718 0.250000
vt 0.490718 0.375000
vt 0.375000 0.375000
vt 0.490718 0.750000
vt 0.490718 0.875000
vt 0.375000 0.875000
vt 0.490718 1.000000
vt 0.375000 1.000000
vt 0.490718 0.500000
vt 0.375000 0.000000
vt 0.490718 0.000000
s 1
f 18/1/1 2/2/1 4/3/1 19/4/1
f 27/5/2 10/6/3 8/7/4 21/8/5
f 21/8/6 8/7/6 6/9/6 23/10/6
f 25/11/7 12/12/8 2/13/9 18/14/10
f 9/15/11 7/16/11 5/17/11 11/18/11
f 12/19/12 10/20/12 16/20/12 15/19/12
f 8/7/13 10/20/13 12/19/13 6/9/13
f 3/21/11 9/15/11 11/18/11 1/22/11
f 23/10/14 6/9/15 12/12/8 25/11/7
f 19/4/16 4/3/17 10/6/3 27/5/2
f 16/20/18 14/23/18 13/24/18 15/19/18
f 4/3/1 2/2/1 13/2/1 14/3/1
f 10/6/3 4/3/17 14/3/19 16/6/19
f 2/13/9 12/12/8 15/12/20 13/13/20
f 3/25/21 20/26/22 28/27/23 9/28/24
f 20/26/22 19/4/16 27/5/2 28/27/23
f 5/17/25 24/29/26 26/30/27 11/31/28
f 24/29/26 23/10/14 25/11/7 26/30/27
f 11/31/28 26/30/27 17/32/29 1/33/30
f 26/30/27 25/11/7 18/14/10 17/32/29
f 7/16/31 22/34/31 24/29/31 5/17/31
f 22/34/32 21/8/32 23/10/32 24/29/32
f 9/28/24 28/27/23 22/34/33 7/16/34
f 28/27/23 27/5/2 21/8/5 22/34/33
f 1/35/35 17/36/36 20/26/36 3/25/35
f 17/36/36 18/1/1 19/4/1 20/26/36
